<svg xmlns="http://www.w3.org/2000/svg" width="597" height="418" viewBox="0 0 597 418" version="1.1"><path d="M 287.633 136.515 C 287.313 137.348, 286.758 157.711, 286.400 181.765 C 286.042 205.819, 285.406 225.877, 284.988 226.337 C 283.841 227.597, 268.648 222.915, 249 215.247 C 222.561 204.928, 210.003 201.804, 194.500 201.687 C 180.861 201.583, 169.060 204.201, 156.457 210.125 C 150.775 212.796, 149.696 214.371, 154.777 212.579 C 159.200 211.018, 167.094 209.424, 174.860 208.524 L 180.220 207.902 179.734 237.201 C 179.433 255.356, 178.804 267.922, 178.080 270.238 C 176.778 274.407, 174.584 276, 170.148 276 C 166.158 276, 164 276.915, 164 278.607 C 164 279.373, 164.338 280.020, 164.750 280.045 C 165.162 280.070, 179.675 280.287, 197 280.527 C 223.510 280.894, 229.530 280.710, 235 279.368 C 248.512 276.051, 259.750 267.631, 264.884 256.976 L 267.546 251.453 271.523 252.103 C 273.710 252.461, 277.692 253.070, 280.371 253.456 L 285.242 254.159 284.792 262.734 C 284.382 270.558, 284.103 271.514, 281.615 273.654 C 279.772 275.240, 277.636 276, 275.026 276 C 272.902 276, 270.452 276.273, 269.582 276.607 C 267.989 277.218, 267.354 279.900, 268.750 280.116 C 271.119 280.483, 318.713 280.581, 319.750 280.220 C 321.513 279.608, 321.304 277.331, 319.418 276.607 C 318.548 276.273, 316.094 276, 313.965 276 C 306.062 276, 303.611 273.495, 302.040 263.815 C 300.222 252.613, 300.292 252.393, 306.250 250.441 C 313.693 248.003, 322.486 243.453, 329.741 238.283 C 337.292 232.904, 338.487 231.334, 333.341 233.555 C 320.043 239.295, 305.546 244.613, 299 246.152 C 286.458 249.102, 269.521 247.357, 252.822 241.394 C 245.402 238.745, 223.335 229.311, 221.500 228.003 C 219.800 226.791, 213.902 225.032, 214.436 225.896 C 214.713 226.344, 220.016 229.322, 226.220 232.513 C 232.424 235.704, 239.249 239.413, 241.387 240.756 L 245.273 243.198 244.702 250.010 C 243.456 264.875, 236.322 271.450, 221.500 271.392 C 212.712 271.358, 206.850 269.342, 204.715 265.620 C 203.875 264.155, 203.399 255.672, 203.173 238.154 L 202.847 212.807 206.160 213.535 C 209.749 214.323, 220.092 218.530, 240.500 227.503 C 261.949 236.932, 269.627 239.114, 283.500 239.722 C 293.916 240.178, 296.556 239.952, 303.500 238.006 C 307.900 236.773, 314.425 234.277, 318 232.460 C 325.084 228.860, 337.485 220.151, 336.677 219.343 C 336.400 219.067, 335.122 219.511, 333.837 220.331 C 326.629 224.928, 301.372 230.405, 300.452 227.570 C 299.947 226.015, 299.423 178, 299.911 178 C 300.137 178, 301.487 179.303, 302.911 180.895 C 323.935 204.398, 397.888 279.072, 402.732 281.690 C 404.813 282.814, 406.307 283.091, 406.926 282.468 C 407.495 281.896, 408.335 257.180, 408.982 222 C 410.301 150.216, 410.404 148.506, 413.553 145.356 C 415.121 143.788, 417.068 143, 419.373 143 C 423.822 143, 426 142.143, 426 140.393 C 426 138.626, 428.318 138.791, 400.701 138.588 C 381.614 138.449, 376.676 138.685, 375.765 139.783 C 374.157 141.720, 376.460 142.966, 381.685 142.985 C 388.041 143.008, 390.895 144.504, 392.669 148.744 C 393.948 151.800, 394.396 159.585, 395.071 190.500 C 395.527 211.400, 395.907 231.875, 395.917 236 L 395.933 243.500 385.370 232.500 C 379.561 226.450, 365.288 211.825, 353.653 200 C 342.018 188.175, 324.849 170.419, 315.499 160.542 C 306.150 150.665, 296.865 140.878, 294.868 138.792 C 291.026 134.781, 288.592 134.015, 287.633 136.515 M 162.143 138.786 C 161.514 138.995, 161 139.796, 161 140.564 C 161 142.083, 162.891 142.642, 170.353 143.330 C 179.210 144.147, 179.943 146.575, 179.976 175.210 L 180 195.920 191.482 195.847 L 202.965 195.774 203.232 171.637 L 203.500 147.500 209.195 147.202 C 218.342 146.723, 225.526 151.391, 230.123 160.800 C 233.576 167.867, 234.021 182.078, 230.976 188.047 C 228.279 193.334, 226.947 194.713, 222.404 196.923 L 218.867 198.643 225.184 200.498 C 228.658 201.518, 236.143 204.118, 241.817 206.276 C 247.491 208.434, 252.378 209.956, 252.676 209.657 C 253.373 208.961, 242.784 202.169, 238.878 200.808 L 235.903 199.771 241.823 193.606 C 245.079 190.215, 249.017 184.979, 250.574 181.970 C 253.013 177.255, 253.410 175.327, 253.447 168 C 253.498 157.931, 251.565 153.362, 244.784 147.529 C 240.096 143.496, 235.918 141.461, 229.008 139.847 C 224.836 138.872, 164.744 137.919, 162.143 138.786" stroke="none" fill="#000000" fill-rule="evenodd"/></svg>